<svg height="512pt" viewBox="0 0 512.001 512" width="512pt" xmlns="http://www.w3.org/2000/svg"><path d="m140.386719 251.21875 42.714843-94.367188-96.484374-48.964843c-2.746094-3.507813-6.824219-5.902344-11.625-5.902344-8.292969 0-15 6.707031-15 15v47.996094c0 40.347656 23.566406 77.59375 60.035156 94.894531 2.082031.980469 4.265625 1.449219 6.417968 1.449219 4.777344 0 9.023438-2.671875 11.871094-6.675781.039063.03125.375.320312.375.320312l.683594-1.503906c.160156-.289063.484375-.40625.632812-.710938.234376-.496094.203126-1.027344.378907-1.535156zm0 0" fill="#ffb64c"/><path d="m450.539062 153.878906c-25.496093-26.394531-56.691406-45.292968-90.585937-55.191406l-15 19.796875-14.996094-26.097656c-9.902343-1.800781-19.796875-2.398438-29.996093-2.398438l-15 26.398438-14.996094-26.398438h-31.195313c-7.203125-50.691406-50.992187-89.988281-103.789062-89.988281h-59.992188c-41.394531 0-74.988281 33.597656-74.988281 74.992188v29.996093c0 7.195313 5.097656 13.195313 12 14.695313l101.683594 20.398437c21 4.199219 36.296875 22.796875 36.296875 44.09375v5.699219l-86.988281 116.085938c-3.300782 4.496093-3.902344 10.496093-1.5 15.597656 2.699218 5.097656 7.796874 8.398437 13.496093 8.398437h22.796875c27.898438 0 54.292969-10.796875 74.089844-30.898437l29.398438-29.09375h8.699218v15c0 16.796875 5.699219 32.394531 14.996094 44.992187-8.398438 0-14.996094 6.597657-14.996094 14.996094s6.597656 15 14.996094 15h119.984375c8.398437 0 15-6.601563 15-15 0-34.496094-23.398437-63.589844-55.195313-72.289063l.902344-2.699218h4.199219c41.992187 0 77.988281 31.796875 80.085937 71.089844.902344 20.699218-6.300781 42.492187-20.695312 57.492187-14.097656 14.996094-33.597656 23.398437-54.292969 23.398437h-172.777343c-35.695313 0-67.789063-19.800781-83.6875-51.59375-3.296876-6.300781-10.199219-9.601562-16.796876-8.097656-6.898437 1.796875-11.699218 7.796875-11.699218 14.695313 0 74.390625 60.59375 134.984375 134.984375 134.984375h126.878906c116.6875 0 216.472656-93.191406 220.074219-205.375 1.496094-57.589844-21.5-111.582032-61.394532-152.679688zm0 0" fill="#7fe881"/><path d="m511.929688 306.558594c-3.597657 112.183594-103.382813 205.375-220.070313 205.375h-36.894531v-89.988282h59.992187c20.699219 0 40.195313-8.402343 54.292969-23.398437 14.398438-15 21.597656-36.792969 20.699219-57.492187-2.101563-39.292969-38.097657-71.089844-80.089844-71.089844h-4.199219l-.902344 2.699218c31.796876 8.699219 55.195313 37.792969 55.195313 72.289063 0 8.398437-6.597656 15-15 15h-89.988281v-269.964844h15l14.996094 26.398438 15-26.398438c10.199218 0 20.097656.601563 29.996093 2.398438l14.996094 26.101562 15-19.800781c33.894531 9.898438 65.089844 28.796875 90.589844 55.195312 39.890625 41.09375 62.886719 95.085938 61.386719 152.675782zm0 0" fill="#5bc980"/><path d="m74.988281 329.957031h-29.996093c-8.289063 0-14.996094-6.707031-14.996094-14.996093 0-8.292969 6.707031-15 14.996094-15h29.996093c8.292969 0 15 6.707031 15 15 0 8.289062-6.707031 14.996093-15 14.996093zm0 0" fill="#7fe881"/><path d="m299.960938 89.988281v74.992188c0 8.398437-6.597657 14.996093-15 14.996093-8.398438 0-14.996094-6.597656-14.996094-14.996093v-74.992188zm0 0" fill="#00ab5e"/><path d="m359.953125 98.6875v66.292969c0 8.398437-6.601563 14.996093-15 14.996093s-14.996094-6.597656-14.996094-14.996093v-72.59375c10.199219 1.199219 20.09375 3.300781 29.996094 6.300781zm0 0" fill="#00ab5e"/><path d="m119.984375 74.992188c0 8.28125-6.714844 14.996093-15 14.996093-8.28125 0-14.996094-6.714843-14.996094-14.996093 0-8.285157 6.714844-15 14.996094-15 8.285156 0 15 6.714843 15 15zm0 0" fill="#523522"/></svg>