<svg id="Layer_1" enable-background="new 0 0 512 512" height="512" viewBox="0 0 512 512" width="512" xmlns="http://www.w3.org/2000/svg"><g><path d="m256.004 349.485h-64.267c-8.284 0-15-6.716-15-15v-255.218c0-43.708 35.559-79.267 79.267-79.267 8.284 0 15 6.716 15 15v319.485c0 8.284-6.716 15-15 15z" fill="#e4e4e7"/><path d="m271.004 334.485v-319.485c0-8.284-6.716-15-15-15-11.436 0-22.304 2.454-32.134 6.832v342.654h32.133c8.285-.001 15.001-6.717 15.001-15.001z" fill="#dddddf"/><path d="m271.004 354.891v-20.405h-94.267v97.238c0 43.64 34.847 79.851 78.485 80.274 44.065.427 80.048-35.295 80.048-79.263 0-38.582-27.707-70.813-64.266-77.844zm-15 92.842c-8.325 0-15-6.722-15-15 0-8.279 6.675-15 15-15 8.251 0 15 6.721 15 15s-6.749 15-15 15z" fill="#46aaa5"/><path d="m335.27 432.733c0-38.58-27.707-70.812-64.267-77.843v-20.406h-47.133v170.608c9.585 4.326 20.176 6.795 31.352 6.903 44.065.428 80.048-35.293 80.048-79.262zm-94.266 0c0-8.279 6.675-15 15-15 8.251 0 15 6.721 15 15 0 8.278-6.749 15-15 15-8.325 0-15-6.721-15-15z" fill="#1e827d"/><path d="m161.737 255.219v64.267c0 8.284 6.716 15 15 15h255.996c43.708 0 79.267-35.559 79.267-79.267 0-8.284-6.716-15-15-15h-320.263c-8.284 0-15 6.715-15 15z" fill="#f4f1f1"/><path d="m176.737 334.485h255.996c32.272 0 60.082-19.396 72.435-47.133h-343.431v32.133c0 8.284 6.716 15 15 15z" fill="#e4e4e7"/><path d="m157.109 240.219h19.628v94.267h-96.46c-43.64 0-79.851-34.847-80.274-78.485-.427-44.065 35.295-80.048 79.263-80.048 38.581-.001 70.812 27.706 77.843 64.266zm-92.842 15c0 8.325 6.722 15 15 15 8.279 0 15-6.675 15-15 0-8.251-6.721-15-15-15s-15 6.749-15 15z" fill="#6ed2cd"/><path d="m80.277 334.485h96.46v-47.133h-169.83c12.566 27.842 40.906 47.133 73.37 47.133z" fill="#46aaa5"/></g></svg>